<svg width="30" height="30" viewBox="0 0 30 30" fill="none" xmlns="http://www.w3.org/2000/svg">
<path d="M14.9999 13.1738C12.9875 13.1738 11.3579 14.819 11.3579 16.8488C11.3579 18.8785 12.9876 20.5237 14.9999 20.5237C17.0121 20.5237 18.6418 18.8785 18.6418 16.8488C18.6418 14.819 17.0122 13.1738 14.9999 13.1738Z" fill="white"/>
<path d="M28.0527 7.9542H24.6176C23.8513 7.9542 23.1564 7.5001 22.8424 6.79516L21.8143 4.49166C21.5003 3.7876 20.8045 3.3335 20.0381 3.3335H9.96188C9.19559 3.3335 8.49979 3.7876 8.18484 4.49166L7.15764 6.79516C6.84357 7.5001 6.14871 7.9542 5.38236 7.9542H1.9473C0.871582 7.9542 0 8.83404 0 9.91803V24.7029C0 25.7869 0.871582 26.6667 1.9473 26.6667H16.2588H28.0526C29.1275 26.6667 29.9999 25.7869 29.9999 24.7029V9.91803C30 8.83404 29.1275 7.9542 28.0527 7.9542ZM15 23.6628C11.2683 23.6628 8.24432 20.6123 8.24432 16.8486C8.24432 13.0848 11.2683 10.0333 15 10.0333C18.7317 10.0333 21.7557 13.0848 21.7557 16.8486C21.7557 20.6123 18.7317 23.6628 15 23.6628Z" fill="white"/>
</svg>
