<svg width="127" height="28" viewBox="0 0 127 28" fill="none" xmlns="http://www.w3.org/2000/svg">
<path d="M7.672 27.384C5.88 27.384 4.46133 27.0107 3.416 26.264C2.392 25.5173 1.656 24.472 1.208 23.128C0.781333 21.7627 0.568 20.1947 0.568 18.424V9.72C0.568 7.88533 0.802667 6.296 1.272 4.952C1.74133 3.608 2.54133 2.57333 3.672 1.848C4.824 1.10133 6.38133 0.727999 8.344 0.727999C10.264 0.727999 11.768 1.048 12.856 1.688C13.9653 2.328 14.7547 3.21333 15.224 4.344C15.6933 5.47467 15.928 6.79733 15.928 8.312V9.976H10.328V7.864C10.328 7.30933 10.2853 6.79733 10.2 6.328C10.136 5.85867 9.96533 5.48533 9.688 5.208C9.432 4.90933 9.00533 4.76 8.408 4.76C7.78933 4.76 7.34133 4.93067 7.064 5.272C6.78667 5.592 6.60533 5.99733 6.52 6.488C6.456 6.97867 6.424 7.49067 6.424 8.024V20.024C6.424 20.6 6.47733 21.144 6.584 21.656C6.712 22.1467 6.92533 22.552 7.224 22.872C7.544 23.1707 7.992 23.32 8.568 23.32C9.16533 23.32 9.624 23.16 9.944 22.84C10.264 22.52 10.488 22.104 10.616 21.592C10.744 21.08 10.808 20.536 10.808 19.96V16.92H8.472V13.56H15.96V27H12.184L11.864 24.856C11.5227 25.5813 11.0213 26.1893 10.36 26.68C9.69867 27.1493 8.80267 27.384 7.672 27.384ZM22.309 27V16.408L17.381 1.08H22.789L25.253 9.272L27.461 1.08H32.645L27.813 16.408V27H22.309ZM34.4803 27L34.9283 1.08H41.0723L43.9203 16.152L46.9923 1.08H52.9123L53.3603 27H49.2963L48.8162 9.752L45.8083 27H42.1923L38.9923 9.624L38.6083 27H34.4803ZM66.0035 27.32C65.3208 27.32 64.6382 27.1707 63.9555 26.872C63.2942 26.552 62.6542 26.1253 62.0355 25.592V27H56.8195V1.08H62.0355V9.848C62.6755 9.29333 63.3368 8.87733 64.0195 8.6C64.7235 8.32267 65.4062 8.184 66.0675 8.184C66.7715 8.184 67.3688 8.32267 67.8595 8.6C68.3715 8.87733 68.7875 9.272 69.1075 9.784C69.4275 10.2747 69.6622 10.8507 69.8115 11.512C69.9608 12.1733 70.0355 12.8773 70.0355 13.624V21.592C70.0355 22.744 69.8755 23.7467 69.5555 24.6C69.2568 25.4533 68.8088 26.1253 68.2115 26.616C67.6142 27.0853 66.8782 27.32 66.0035 27.32ZM63.4755 23.96C63.8168 23.96 64.0835 23.864 64.2755 23.672C64.4675 23.48 64.6062 23.2347 64.6915 22.936C64.7768 22.616 64.8195 22.264 64.8195 21.88V13.24C64.8195 12.8773 64.7768 12.5573 64.6915 12.28C64.6062 11.9813 64.4675 11.7467 64.2755 11.576C64.1048 11.4053 63.8595 11.32 63.5395 11.32C63.2622 11.32 62.9955 11.384 62.7395 11.512C62.5048 11.6187 62.2702 11.7573 62.0355 11.928V23.448C62.2702 23.5973 62.5048 23.7253 62.7395 23.832C62.9955 23.9173 63.2408 23.96 63.4755 23.96ZM76.303 27.32C75.3643 27.32 74.575 27.096 73.935 26.648C73.295 26.2 72.815 25.6347 72.495 24.952C72.175 24.248 72.015 23.5333 72.015 22.808C72.015 21.656 72.239 20.6853 72.687 19.896C73.1563 19.1067 73.7643 18.4453 74.511 17.912C75.2577 17.3787 76.079 16.9307 76.975 16.568C77.871 16.184 78.7563 15.8427 79.631 15.544V13.688C79.631 13.368 79.599 13.0907 79.535 12.856C79.471 12.6 79.3643 12.408 79.215 12.28C79.0657 12.1307 78.8417 12.056 78.543 12.056C78.2443 12.056 78.0097 12.12 77.839 12.248C77.6897 12.376 77.583 12.5573 77.519 12.792C77.455 13.0053 77.4123 13.2507 77.391 13.528L77.263 14.872L72.399 14.68C72.5057 12.4613 73.0923 10.8293 74.159 9.784C75.247 8.71733 76.8683 8.184 79.023 8.184C80.9003 8.184 82.2977 8.70667 83.215 9.752C84.1537 10.776 84.623 12.1093 84.623 13.752V22.392C84.623 23.16 84.6337 23.832 84.655 24.408C84.6977 24.984 84.7403 25.4853 84.783 25.912C84.847 26.3387 84.9003 26.7013 84.943 27H80.271C80.207 26.5093 80.1323 25.976 80.047 25.4C79.9617 24.824 79.8977 24.4827 79.855 24.376C79.6417 25.144 79.2363 25.8267 78.639 26.424C78.063 27.0213 77.2843 27.32 76.303 27.32ZM78.159 23.8C78.3723 23.8 78.5643 23.7573 78.735 23.672C78.927 23.5867 79.0977 23.4693 79.247 23.32C79.3963 23.1707 79.5243 23.0213 79.631 22.872V17.816C79.2043 18.072 78.8097 18.3387 78.447 18.616C78.0843 18.872 77.775 19.16 77.519 19.48C77.263 19.8 77.0603 20.152 76.911 20.536C76.783 20.8987 76.719 21.3147 76.719 21.784C76.719 22.4027 76.847 22.8933 77.103 23.256C77.359 23.6187 77.711 23.8 78.159 23.8Z" fill="white"/>
<path d="M99.7213 20.376V15.256H95.1133V12.216H99.7213V7.224H103.177V12.216H107.817V15.256H103.177V20.376H99.7213ZM110.576 27V1.08H117.712C119.462 1.08 120.976 1.272 122.256 1.656C123.536 2.04 124.528 2.73333 125.232 3.736C125.958 4.71733 126.32 6.11467 126.32 7.928C126.32 8.99467 126.235 9.944 126.064 10.776C125.894 11.608 125.574 12.3333 125.104 12.952C124.656 13.5493 124.006 14.0507 123.152 14.456L126.704 27H120.784L117.936 15.384H116.304V27H110.576ZM116.304 12.088H117.904C118.715 12.088 119.344 11.9493 119.792 11.672C120.24 11.3733 120.55 10.9573 120.72 10.424C120.912 9.86933 121.008 9.208 121.008 8.44C121.008 7.33067 120.806 6.46667 120.4 5.848C119.995 5.22933 119.248 4.92 118.16 4.92H116.304V12.088Z" fill="#F90304"/>
</svg>
